<?xml version="1.0" encoding="utf-8"?>
<!-- Generator: Adobe Illustrator 26.0.3, SVG Export Plug-In . SVG Version: 6.00 Build 0)  -->
<svg version="1.0" id="Layer_1" xmlns="http://www.w3.org/2000/svg" xmlns:xlink="http://www.w3.org/1999/xlink" x="0px" y="0px"
	 viewBox="0 0 1092.4 841.2" style="enable-background:new 0 0 1092.4 841.2;" xml:space="preserve">
<style type="text/css">
	.st0{fill:url(#SVGID_1_);}
	.st1{fill:#E9E8E8;}
	.st2{fill:#76CAE7;}
	.st3{fill:#1C8BB4;}
	.st4{fill:url(#SVGID_00000116937508989770339450000014532871554491505543_);}
</style>
<linearGradient id="SVGID_1_" gradientUnits="userSpaceOnUse" x1="358.0351" y1="116.0585" x2="753.3551" y2="116.0585" gradientTransform="matrix(1.33 0 0 1.33 -193.52 313.9133)">
	<stop  offset="0" style="stop-color:#095CA2"/>
	<stop  offset="7.000000e-02" style="stop-color:#0B61AA"/>
	<stop  offset="0.36" style="stop-color:#2170B7"/>
	<stop  offset="0.52" style="stop-color:#2974BA"/>
	<stop  offset="0.64" style="stop-color:#2471B8"/>
	<stop  offset="0.82" style="stop-color:#176AB3"/>
	<stop  offset="1" style="stop-color:#095CA2"/>
</linearGradient>
<path class="st0" d="M546.2,261.9c-145.5,0-263.5-41.1-263.5-95.4v508.2c0,52.2,115.9,94.6,259.8,95.4h3.7
	c145.5,0,263.5-41.1,263.5-95.4V166.5C809.7,219.6,691.8,261.9,546.2,261.9z"/>
<path class="st1" d="M809.7,166.5c0,53-118,95.4-263.5,95.4s-263.5-41.1-263.5-95.4s118-95.4,263.5-95.4S809.7,112.2,809.7,166.5"/>
<path class="st2" d="M748.5,158.7c0,33.7-90.9,60.9-202.3,60.9s-202.3-27.2-202.3-60.9s90.9-60.4,202.3-60.4
	S748.5,125.4,748.5,158.7"/>
<path class="st3" d="M546.2,173.9c-54.3-1.4-108.4,6.5-159.9,23.4c51.6,16.6,105.7,24.1,159.9,22.2c54.3,1.6,108.5-6.5,159.9-23.9
	C654.4,179.6,600.4,172.2,546.2,173.9z"/>
<radialGradient id="SVGID_00000131325412630804378780000009107359412834917790_" cx="566.5825" cy="129.788" r="218.01" gradientTransform="matrix(1.33 0 0 1.33 -193.52 313.9133)" gradientUnits="userSpaceOnUse">
	<stop  offset="0" style="stop-color:#F2F2F2"/>
	<stop  offset="0.58" style="stop-color:#EFEEEE"/>
	<stop  offset="1" style="stop-color:#E7E6E6"/>
</radialGradient>
<path style="fill:url(#SVGID_00000131325412630804378780000009107359412834917790_);" d="M706.6,519.3V379.5h-37v169.8h101.1v-30
	L706.6,519.3z M413,450.6c-7.7-3.1-14.7-7.4-21-12.7c-3.4-3.5-5.1-8.3-4.9-13.2c-0.3-4.9,2.1-9.6,6.2-12.3
	c5.1-3.5,11.1-5.2,17.3-4.9c14.6-0.7,29.1,3.5,41.1,11.9V384c-13.1-4.9-27.1-7.1-41.1-6.6c-16.1-0.9-32,4.1-44.8,14
	c-11.3,8.7-17.7,22.3-17.3,36.6c0,21,13.2,37.4,41.1,49.8c9.1,3.9,17.7,8.8,25.5,14.8c3.9,3.3,6.1,8,6.2,13.1
	c0,5.1-2.5,9.8-6.6,12.7c-5.6,3.3-12,4.9-18.5,4.5c-16.5-0.1-32.5-6.3-44.8-17.3v38.2c13.6,7,28.7,10.4,44,9.9
	c17.2,1,34.3-3.8,48.5-13.6c10.2-9.6,15.2-23.5,13.6-37.4c0.2-10.5-3.5-20.8-10.3-28.8C437.5,463.9,425.9,455.9,413,450.6z
	 M628.4,516c18.2-29.2,18.2-66.2,0-95.4c-6.4-12.8-16.4-23.6-28.8-30.8c-12.5-7.1-26.7-10.8-41.1-10.7c-15.5-0.3-30.9,3.5-44.4,11.1
	c-12.7,7.1-23.1,17.6-30,30.4c-7.3,14.5-10.9,30.6-10.7,46.9c0.1,14.3,3.4,28.4,9.9,41.1c6.3,12.7,16.1,23.3,28.4,30.4
	c12.4,7.6,26.6,11.8,41.1,12.3l35.4,41.1h49.8l-50.6-45.2C604.3,542.1,619,531,628.4,516L628.4,516z M587.3,505.7
	c-7.6,9.4-19.1,14.7-31.2,14.4c-12.2,0.4-23.8-5.1-31.2-14.8c-8.7-11.9-12.9-26.4-11.9-41.1c-1-14.7,3.3-29.2,11.9-41.1
	c7.8-9.7,19.6-15.3,32.1-15.2c12.2-0.5,23.8,5.2,30.8,15.2c8.1,12.1,12,26.6,11.1,41.1C600.3,478.9,596.2,493.7,587.3,505.7
	L587.3,505.7z"/>
</svg>
